<svg width="18" height="14" viewBox="0 0 18 14" fill="none" xmlns="http://www.w3.org/2000/svg">
<path d="M17.3778 1.98333C17.3261 1.9196 17.2609 1.86811 17.1869 1.83257C17.113 1.79703 17.032 1.77832 16.95 1.77777H5.38331L5.74442 2.88889H16.2222L14.7389 9.55555H6.40554L3.86665 1.51666C3.83918 1.43136 3.7915 1.35397 3.72765 1.29109C3.6638 1.22821 3.58569 1.18171 3.49998 1.15555L1.2222 0.455552C1.15216 0.434029 1.07857 0.426513 1.00563 0.433432C0.932686 0.44035 0.86182 0.461568 0.797077 0.495874C0.666322 0.565159 0.568446 0.683547 0.52498 0.824996C0.481514 0.966445 0.496018 1.11937 0.565303 1.25012C0.634587 1.38088 0.752976 1.47875 0.894425 1.52222L2.88887 2.13333L5.43887 10.1889L4.52776 10.9333L4.45554 11.0056C4.23017 11.2653 4.10243 11.5954 4.09431 11.9392C4.0862 12.283 4.19822 12.6188 4.41109 12.8889C4.56251 13.073 4.75493 13.2192 4.97295 13.3156C5.19096 13.4121 5.42853 13.4562 5.66665 13.4444H14.9389C15.0862 13.4444 15.2275 13.3859 15.3317 13.2817C15.4359 13.1775 15.4944 13.0362 15.4944 12.8889C15.4944 12.7415 15.4359 12.6002 15.3317 12.496C15.2275 12.3919 15.0862 12.3333 14.9389 12.3333H5.57776C5.51378 12.3311 5.45145 12.3125 5.39679 12.2792C5.34213 12.2459 5.29698 12.199 5.2657 12.1432C5.23442 12.0873 5.21808 12.0244 5.21824 11.9604C5.21841 11.8963 5.23508 11.8335 5.26665 11.7778L6.60554 10.6667H15.1833C15.3117 10.6698 15.4373 10.6283 15.5386 10.5493C15.6399 10.4703 15.7106 10.3587 15.7389 10.2333L17.5 2.45555C17.5169 2.37273 17.5146 2.28714 17.4935 2.20531C17.4723 2.12348 17.4327 2.04756 17.3778 1.98333Z" fill="white"/>
</svg>
